<?xml version="1.0" standalone="no"?><!DOCTYPE svg PUBLIC "-//W3C//DTD SVG 1.1//EN" "http://www.w3.org/Graphics/SVG/1.1/DTD/svg11.dtd"><svg t="1671597774716" class="icon" viewBox="0 0 1024 1024" version="1.1" xmlns="http://www.w3.org/2000/svg" p-id="2959" xmlns:xlink="http://www.w3.org/1999/xlink" width="200" height="200"><path d="M616.45 545v321.92H409.79V545h206.66m2-32H407.79a30.09 30.09 0 0 0-30 30v325.92a30.09 30.09 0 0 0 30 30h210.66a30.09 30.09 0 0 0 30-30V543a30.09 30.09 0 0 0-30-30z" fill="#0055FF" p-id="2960"></path><path d="M512 157.08c19.89 0 39 6 52.33 16.47l270.77 211.9 13.8 10.81a52.22 52.22 0 0 1 10.1 10.29 50.37 50.37 0 0 1 7.4 20.16 52.24 52.24 0 0 1 0.48 7v381.76a51.8 51.8 0 0 1-51.66 51.45H208.75a51.8 51.8 0 0 1-51.66-51.45V433.71a51.21 51.21 0 0 1 0.48-7 50.36 50.36 0 0 1 7.39-20.2 52.28 52.28 0 0 1 10.1-10.26l13.8-10.8 270.81-211.9c13.33-10.47 32.44-16.47 52.33-16.47m0-32c-26.12 0-52.23 7.76-72.05 23.27L169.18 360.26l-13.81 10.8a83.58 83.58 0 0 0-16.91 17.55 0.83 0.83 0 0 0-0.15 0.23 82.8 82.8 0 0 0-12.45 33.56 84.36 84.36 0 0 0-0.77 11.31v381.76c0 45.9 37.65 83.45 83.66 83.45h606.5c46 0 83.66-37.55 83.66-83.45V433.71a84.36 84.36 0 0 0-0.77-11.31 82.8 82.8 0 0 0-12.45-33.56 0.83 0.83 0 0 0-0.15-0.23 83.58 83.58 0 0 0-16.91-17.55l-13.81-10.8-270.77-211.91c-19.82-15.51-45.93-23.27-72-23.27z" fill="#738099" p-id="2961"></path></svg>
